<svg width="230" height="62" fill="none" xmlns="http://www.w3.org/2000/svg"><path d="M160.118 16.998a21.28 21.28 0 0 0-8.534 1.78V9.34a6.696 6.696 0 0 0-2.147-4.257 6.547 6.547 0 0 0-4.409-1.712c-1.628 0-3.199.61-4.409 1.712a6.7 6.7 0 0 0-2.147 4.257v30.23a22.064 22.064 0 0 0 3.968 11.968 21.67 21.67 0 0 0 9.838 7.762 21.389 21.389 0 0 0 12.437.972 21.557 21.557 0 0 0 10.9-6.14 21.986 21.986 0 0 0 5.738-11.21 22.133 22.133 0 0 0-1.334-12.551 21.835 21.835 0 0 0-7.961-9.72 21.447 21.447 0 0 0-11.94-3.654Zm0 30.393a8.273 8.273 0 0 1-4.646-1.405 8.423 8.423 0 0 1-3.089-3.783 8.54 8.54 0 0 1-.489-4.882 8.48 8.48 0 0 1 2.277-4.333 8.312 8.312 0 0 1 4.273-2.32 8.25 8.25 0 0 1 4.826.478 8.36 8.36 0 0 1 3.749 3.113 8.507 8.507 0 0 1 1.405 4.697 8.509 8.509 0 0 1-.617 3.235 8.424 8.424 0 0 1-1.797 2.747 8.31 8.31 0 0 1-2.701 1.84 8.234 8.234 0 0 1-3.191.65v-.037ZM74.86 14.074c2.56-2.59 2.56-6.792 0-9.383a6.501 6.501 0 0 0-9.272 0c-2.56 2.591-2.56 6.792 0 9.383a6.501 6.501 0 0 0 9.272 0Zm-4.635 4.503a6.554 6.554 0 0 0-4.638 1.967 6.713 6.713 0 0 0-1.918 4.705v29.436c0 1.76.69 3.447 1.92 4.692a6.517 6.517 0 0 0 4.636 1.943 6.516 6.516 0 0 0 4.636-1.943 6.675 6.675 0 0 0 1.92-4.692V25.212a6.712 6.712 0 0 0-1.931-4.68 6.554 6.554 0 0 0-4.625-1.955Zm159.678 6.063a6.666 6.666 0 0 0-1.993-4.541 6.506 6.506 0 0 0-4.552-1.864 6.51 6.51 0 0 0-4.553 1.864 6.665 6.665 0 0 0-1.992 4.542v14.262c0 5.367-3.421 9.726-8.732 9.726-5.31 0-8.724-4.359-8.724-9.726V24.396h-.08a6.624 6.624 0 0 0-2.149-4.142 6.475 6.475 0 0 0-4.323-1.66c-1.593 0-3.13.59-4.323 1.66a6.623 6.623 0 0 0-2.148 4.142h-.088v14.507a22.229 22.229 0 0 0 6.443 15.412 21.706 21.706 0 0 0 15.27 6.422 21.699 21.699 0 0 0 15.339-6.25 22.224 22.224 0 0 0 6.612-15.34V24.642h-.007Zm-96.178 9.193c0-1.986-.542-16.249-16.115-16.012 0 0-6.739.17-9.757 5.56-3.025-5.39-9.757-5.56-9.757-5.56-16.789-.252-16.115 16.25-16.115 16.25v20.615c0 1.76.691 3.447 1.92 4.691a6.517 6.517 0 0 0 4.636 1.943 6.517 6.517 0 0 0 4.636-1.943 6.675 6.675 0 0 0 1.92-4.691V34.07s0-4.203 3.223-4.38c0 0 3.282-.223 3.282 4.38v20.616c0 1.76.69 3.447 1.92 4.691a6.516 6.516 0 0 0 4.636 1.943 6.516 6.516 0 0 0 4.635-1.943 6.673 6.673 0 0 0 1.92-4.691V31.409c.252-.52.644-.958 1.132-1.263a3.004 3.004 0 0 1 1.623-.457c3.223.178 3.223 4.381 3.223 4.381v20.616c0 1.76.69 3.447 1.92 4.691a6.516 6.516 0 0 0 4.635 1.943 6.516 6.516 0 0 0 4.636-1.943 6.673 6.673 0 0 0 1.92-4.691v-.238l-.073-20.615ZM59.274 44.826V9.378c0-1.76-.69-3.447-1.92-4.692a6.517 6.517 0 0 0-4.636-1.943 6.517 6.517 0 0 0-4.636 1.943 6.675 6.675 0 0 0-1.92 4.692V44.96s-.344 4.344-5.538 4.395c-.22 0-3.662-.155-4.226-4.35V23.691h-.08a6.625 6.625 0 0 0-2.133-4.185 6.476 6.476 0 0 0-4.347-1.68 6.476 6.476 0 0 0-4.346 1.68 6.625 6.625 0 0 0-2.133 4.185h-.073v21.134c-.461 4.374-4.036 4.53-4.263 4.53-5.186-.052-5.911-4.53-5.911-4.53V9.378a6.7 6.7 0 0 0-2.147-4.258 6.548 6.548 0 0 0-4.41-1.712c-1.627 0-3.198.61-4.409 1.712A6.7 6.7 0 0 0 0 9.378V45.07c0 2.009.667 16.234 19.265 16.004 0 0 6.592-.133 10.54-4.18 3.92 4.047 10.534 4.18 10.534 4.18 20.034.252 18.935-16.249 18.935-16.249Z" fill="#fff"/></svg>