<svg data-name="Capa 1" xmlns="http://www.w3.org/2000/svg" viewBox="0 0 235.7 59.46"><path d="M59.3 42.33V7.29c0-1.74-.69-3.41-1.92-4.64-1.23-1.23-2.9-1.92-4.64-1.92s-3.41.69-4.64 1.92a6.562 6.562 0 0 0-1.92 4.64v35.16s-.34 4.31-5.54 4.39c-.22 0-3.66-.15-4.23-4.29V21.46h-.07a6.525 6.525 0 0 0-2.13-4.13c-1.2-1.07-2.74-1.66-4.35-1.66s-3.15.59-4.35 1.66a6.502 6.502 0 0 0-2.13 4.13h-.08v20.88c-.46 4.33-4.03 4.5-4.26 4.5-5.19-.05-5.91-4.48-5.91-4.48V7.29c.1-.92 0-1.85-.28-2.73s-.75-1.69-1.37-2.38A6.435 6.435 0 0 0 9.26.57C8.42.19 7.5 0 6.58 0S4.74.19 3.9.57c-.84.38-1.6.93-2.22 1.61C1.06 2.87.6 3.68.31 4.56a6.81 6.81 0 0 0-.27 2.73v35.29c0 1.98.67 16.05 19.26 15.81 0 0 6.59-.13 10.53-4.13 3.92 4 10.54 4.13 10.54 4.13 20.03.25 18.93-16.05 18.93-16.05Zm13.74-25.51c-1.74 0-3.41.69-4.65 1.92a6.582 6.582 0 0 0-1.94 4.64v29.11a6.6 6.6 0 0 0 2.15 4.21c1.21 1.09 2.78 1.69 4.41 1.69s3.2-.6 4.41-1.69a6.648 6.648 0 0 0 2.15-4.21V23.38c0-1.73-.7-3.39-1.92-4.61a6.573 6.573 0 0 0-4.6-1.94Zm65.47 14.74c0-1.96-.54-16.05-16.11-15.81 0 0-6.74.17-9.76 5.49-3.02-5.32-9.76-5.49-9.76-5.49C86.1 15.49 86.73 31.8 86.73 31.8v20.38c-.1.92 0 1.85.28 2.73.29.88.75 1.69 1.37 2.38s1.37 1.24 2.22 1.61c.84.38 1.76.57 2.68.57s1.84-.19 2.68-.57c.84-.38 1.6-.93 2.22-1.61a6.588 6.588 0 0 0 1.65-5.11V31.81s0-4.15 3.22-4.32c0 0 3.29-.23 3.29 4.32v20.37c-.1.92 0 1.85.28 2.73.29.88.75 1.69 1.37 2.38.62.69 1.37 1.24 2.22 1.61.84.38 1.76.57 2.68.57s1.84-.19 2.68-.57c.84-.38 1.6-.93 2.22-1.61.62-.69 1.08-1.5 1.37-2.38.29-.88.38-1.81.28-2.73v-23c.25-.51.64-.95 1.13-1.25.49-.3 1.05-.45 1.62-.45 3.22.18 3.22 4.32 3.22 4.32v20.37c-.1.92 0 1.85.28 2.73.29.88.75 1.69 1.37 2.38.62.69 1.37 1.24 2.22 1.61.84.38 1.76.57 2.68.57s1.84-.19 2.68-.57c.84-.38 1.6-.93 2.22-1.61.62-.69 1.08-1.5 1.37-2.38.29-.88.38-1.81.28-2.73v-.23l-.04-20.38Z" style="fill:#c34a7e"/><path d="M165.32 15.51c-2.93 0-5.83.6-8.53 1.76V7.96c-.06-1.7-.77-3.31-1.99-4.49-1.22-1.18-2.86-1.84-4.56-1.84s-3.33.66-4.56 1.84a6.52 6.52 0 0 0-1.99 4.49v29.85c.13 4.25 1.51 8.36 3.97 11.83 2.46 3.47 5.88 6.13 9.84 7.67 3.96 1.53 8.29 1.87 12.44.95 4.15-.91 7.94-3.02 10.9-6.08 2.96-3.05 4.95-6.91 5.73-11.08.78-4.18.31-8.49-1.35-12.4a21.657 21.657 0 0 0-7.98-9.6 21.52 21.52 0 0 0-11.95-3.59h.02Zm0 30.07a8.45 8.45 0 0 1-4.65-1.39 8.308 8.308 0 0 1-3.09-3.74 8.33 8.33 0 0 1 1.79-9.1 8.317 8.317 0 0 1 4.27-2.29c1.62-.32 3.3-.16 4.83.47 1.53.63 2.83 1.7 3.75 3.08.92 1.37 1.4 2.99 1.4 4.64 0 2.2-.87 4.32-2.43 5.88a8.357 8.357 0 0 1-5.87 2.45Zm70.38-22.56a6.542 6.542 0 0 0-11.09-4.49 6.52 6.52 0 0 0-1.99 4.49V37.1c0 5.31-3.41 9.61-8.72 9.61s-8.74-4.3-8.74-9.61V22.76h-.08c-.2-1.58-.97-3.03-2.16-4.08a6.535 6.535 0 0 0-10.8 4.08h-.08V37.1a21.82 21.82 0 0 0 6.5 15.12c4.05 4 9.51 6.26 15.21 6.29 5.69.03 11.18-2.16 15.28-6.11s6.49-9.35 6.67-15.04V23.03Z" style="fill:#3c3073"/></svg>